<mxfile host="Electron" modified="2023-05-16T01:48:08.276Z" agent="Mozilla/5.0 (Windows NT 10.0; Win64; x64) AppleWebKit/537.36 (KHTML, like Gecko) draw.io/21.2.8 Chrome/112.0.5615.165 Electron/24.2.0 Safari/537.36" etag="5b4yhsbqfM6aTu6BJS7G" version="21.2.8" type="device">
  <diagram name="Página-1" id="A8N3bBJXcKCPGwv137F5">
    <mxGraphModel dx="2261" dy="836" grid="1" gridSize="10" guides="1" tooltips="1" connect="1" arrows="1" fold="1" page="1" pageScale="1" pageWidth="827" pageHeight="1169" math="0" shadow="0">
      <root>
        <mxCell id="0" />
        <mxCell id="1" parent="0" />
        <mxCell id="cvL-I4Pj1tdSeowoCA_2-2" value="" style="rounded=0;whiteSpace=wrap;html=1;" parent="1" vertex="1">
          <mxGeometry x="-20" y="300" width="1060" height="440" as="geometry" />
        </mxCell>
        <mxCell id="cvL-I4Pj1tdSeowoCA_2-34" value="" style="rounded=0;whiteSpace=wrap;html=1;fillColor=#dae8fc;strokeColor=#6c8ebf;" parent="1" vertex="1">
          <mxGeometry x="10" y="400" width="640" height="289" as="geometry" />
        </mxCell>
        <mxCell id="cvL-I4Pj1tdSeowoCA_2-1" value="" style="image;sketch=0;aspect=fixed;html=1;points=[];align=center;fontSize=12;image=img/lib/mscae/Docker.svg;" parent="1" vertex="1">
          <mxGeometry x="10" y="320" width="73.17" height="60" as="geometry" />
        </mxCell>
        <mxCell id="cvL-I4Pj1tdSeowoCA_2-10" value="" style="edgeStyle=orthogonalEdgeStyle;rounded=0;orthogonalLoop=1;jettySize=auto;html=1;" parent="1" source="cvL-I4Pj1tdSeowoCA_2-3" edge="1">
          <mxGeometry relative="1" as="geometry">
            <mxPoint x="200" y="585" as="targetPoint" />
          </mxGeometry>
        </mxCell>
        <mxCell id="cvL-I4Pj1tdSeowoCA_2-3" value="Raw" style="rounded=0;whiteSpace=wrap;html=1;" parent="1" vertex="1">
          <mxGeometry x="140" y="460" width="120" height="100" as="geometry" />
        </mxCell>
        <mxCell id="cvL-I4Pj1tdSeowoCA_2-26" value="" style="edgeStyle=orthogonalEdgeStyle;rounded=0;orthogonalLoop=1;jettySize=auto;html=1;" parent="1" source="cvL-I4Pj1tdSeowoCA_2-4" edge="1">
          <mxGeometry relative="1" as="geometry">
            <mxPoint x="390" y="585" as="targetPoint" />
          </mxGeometry>
        </mxCell>
        <mxCell id="cvL-I4Pj1tdSeowoCA_2-4" value="Context" style="rounded=0;whiteSpace=wrap;html=1;" parent="1" vertex="1">
          <mxGeometry x="330" y="460" width="120" height="100" as="geometry" />
        </mxCell>
        <mxCell id="cvL-I4Pj1tdSeowoCA_2-15" style="edgeStyle=orthogonalEdgeStyle;rounded=0;orthogonalLoop=1;jettySize=auto;html=1;exitX=1;exitY=0.5;exitDx=0;exitDy=0;exitPerimeter=0;entryX=0;entryY=0.5;entryDx=0;entryDy=0;" parent="1" target="cvL-I4Pj1tdSeowoCA_2-4" edge="1">
          <mxGeometry relative="1" as="geometry">
            <Array as="points">
              <mxPoint x="290" y="620" />
              <mxPoint x="290" y="510" />
            </Array>
            <mxPoint x="230" y="620" as="sourcePoint" />
          </mxGeometry>
        </mxCell>
        <mxCell id="cvL-I4Pj1tdSeowoCA_2-9" value="" style="edgeStyle=orthogonalEdgeStyle;rounded=0;orthogonalLoop=1;jettySize=auto;html=1;" parent="1" target="cvL-I4Pj1tdSeowoCA_2-3" edge="1">
          <mxGeometry relative="1" as="geometry">
            <mxPoint x="98" y="510" as="sourcePoint" />
          </mxGeometry>
        </mxCell>
        <mxCell id="cvL-I4Pj1tdSeowoCA_2-40" value="" style="edgeStyle=orthogonalEdgeStyle;rounded=0;orthogonalLoop=1;jettySize=auto;html=1;" parent="1" source="cvL-I4Pj1tdSeowoCA_2-17" target="cvL-I4Pj1tdSeowoCA_2-38" edge="1">
          <mxGeometry relative="1" as="geometry" />
        </mxCell>
        <mxCell id="cvL-I4Pj1tdSeowoCA_2-17" value="" style="image;aspect=fixed;html=1;points=[];align=center;fontSize=12;image=img/lib/azure2/databases/Azure_Database_PostgreSQL_Server.svg;" parent="1" vertex="1">
          <mxGeometry x="700" y="464" width="69" height="92" as="geometry" />
        </mxCell>
        <mxCell id="cvL-I4Pj1tdSeowoCA_2-30" value="" style="edgeStyle=orthogonalEdgeStyle;rounded=0;orthogonalLoop=1;jettySize=auto;html=1;" parent="1" source="cvL-I4Pj1tdSeowoCA_2-23" target="cvL-I4Pj1tdSeowoCA_2-17" edge="1">
          <mxGeometry relative="1" as="geometry" />
        </mxCell>
        <mxCell id="cvL-I4Pj1tdSeowoCA_2-23" value="" style="sketch=0;outlineConnect=0;fontColor=#232F3E;gradientColor=none;fillColor=#3F8624;strokeColor=none;dashed=0;verticalLabelPosition=bottom;verticalAlign=top;align=center;html=1;fontSize=12;fontStyle=0;aspect=fixed;pointerEvents=1;shape=mxgraph.aws4.iot_greengrass_component_machine_learning;" parent="1" vertex="1">
          <mxGeometry x="536" y="581" width="78" height="78" as="geometry" />
        </mxCell>
        <mxCell id="cvL-I4Pj1tdSeowoCA_2-27" style="edgeStyle=orthogonalEdgeStyle;rounded=0;orthogonalLoop=1;jettySize=auto;html=1;exitX=1;exitY=0.5;exitDx=0;exitDy=0;exitPerimeter=0;" parent="1" target="cvL-I4Pj1tdSeowoCA_2-23" edge="1">
          <mxGeometry relative="1" as="geometry">
            <mxPoint x="420" y="620" as="sourcePoint" />
          </mxGeometry>
        </mxCell>
        <mxCell id="cvL-I4Pj1tdSeowoCA_2-44" style="edgeStyle=orthogonalEdgeStyle;rounded=0;orthogonalLoop=1;jettySize=auto;html=1;exitX=1;exitY=0.5;exitDx=0;exitDy=0;exitPerimeter=0;entryX=0;entryY=0.5;entryDx=0;entryDy=0;" parent="1" target="cvL-I4Pj1tdSeowoCA_2-41" edge="1">
          <mxGeometry relative="1" as="geometry">
            <mxPoint x="420" y="620" as="sourcePoint" />
          </mxGeometry>
        </mxCell>
        <mxCell id="cvL-I4Pj1tdSeowoCA_2-32" value="" style="shape=image;verticalLabelPosition=bottom;labelBackgroundColor=default;verticalAlign=top;aspect=fixed;imageAspect=0;image=https://cdn.icon-icons.com/icons2/2699/PNG/512/apache_spark_logo_icon_170560.png;" parent="1" vertex="1">
          <mxGeometry x="423" y="450" width="36" height="36" as="geometry" />
        </mxCell>
        <mxCell id="cvL-I4Pj1tdSeowoCA_2-33" value="" style="shape=image;verticalLabelPosition=bottom;labelBackgroundColor=default;verticalAlign=top;aspect=fixed;imageAspect=0;image=https://upload.wikimedia.org/wikipedia/commons/thumb/c/c3/Python-logo-notext.svg/1200px-Python-logo-notext.svg.png;" parent="1" vertex="1">
          <mxGeometry x="237.2" y="450" width="35.59" height="39" as="geometry" />
        </mxCell>
        <mxCell id="cvL-I4Pj1tdSeowoCA_2-35" value="" style="shape=image;verticalLabelPosition=bottom;labelBackgroundColor=default;verticalAlign=top;aspect=fixed;imageAspect=0;image=https://icon2.cleanpng.com/20180331/rje/kisspng-airflow-airbnb-data-engineering-workflow-reflection-5ac022c2c25fe0.5354991215225412507962.jpg;" parent="1" vertex="1">
          <mxGeometry x="607" y="380" width="50" height="50" as="geometry" />
        </mxCell>
        <mxCell id="cvL-I4Pj1tdSeowoCA_2-36" value="API" style="sketch=0;points=[[0,0,0],[0.25,0,0],[0.5,0,0],[0.75,0,0],[1,0,0],[0,1,0],[0.25,1,0],[0.5,1,0],[0.75,1,0],[1,1,0],[0,0.25,0],[0,0.5,0],[0,0.75,0],[1,0.25,0],[1,0.5,0],[1,0.75,0]];outlineConnect=0;fontColor=#232F3E;gradientColor=#4D72F3;gradientDirection=north;fillColor=#3334B9;strokeColor=#ffffff;dashed=0;verticalLabelPosition=bottom;verticalAlign=top;align=center;html=1;fontSize=12;fontStyle=0;aspect=fixed;shape=mxgraph.aws4.resourceIcon;resIcon=mxgraph.aws4.cloud_control_api;" parent="1" vertex="1">
          <mxGeometry x="20" y="471" width="78" height="78" as="geometry" />
        </mxCell>
        <mxCell id="cvL-I4Pj1tdSeowoCA_2-38" value="" style="shape=image;verticalLabelPosition=bottom;labelBackgroundColor=default;verticalAlign=top;aspect=fixed;imageAspect=0;image=https://upload.wikimedia.org/wikipedia/commons/thumb/c/cf/New_Power_BI_Logo.svg/630px-New_Power_BI_Logo.svg.png;" parent="1" vertex="1">
          <mxGeometry x="900" y="457" width="106" height="106" as="geometry" />
        </mxCell>
        <mxCell id="cvL-I4Pj1tdSeowoCA_2-43" value="" style="edgeStyle=orthogonalEdgeStyle;rounded=0;orthogonalLoop=1;jettySize=auto;html=1;" parent="1" source="cvL-I4Pj1tdSeowoCA_2-41" target="cvL-I4Pj1tdSeowoCA_2-17" edge="1">
          <mxGeometry relative="1" as="geometry" />
        </mxCell>
        <mxCell id="cvL-I4Pj1tdSeowoCA_2-41" value="App" style="rounded=0;whiteSpace=wrap;html=1;" parent="1" vertex="1">
          <mxGeometry x="515" y="460" width="120" height="100" as="geometry" />
        </mxCell>
        <mxCell id="cvL-I4Pj1tdSeowoCA_2-45" value="" style="shape=image;verticalLabelPosition=bottom;labelBackgroundColor=default;verticalAlign=top;aspect=fixed;imageAspect=0;image=https://cdn.icon-icons.com/icons2/2699/PNG/512/apache_spark_logo_icon_170560.png;" parent="1" vertex="1">
          <mxGeometry x="607" y="450" width="36" height="36" as="geometry" />
        </mxCell>
        <mxCell id="cvL-I4Pj1tdSeowoCA_2-46" value="&lt;b&gt;PROBLEMA&lt;/b&gt;:&lt;br&gt;Dado a incerteza do cenário macroeconômico mundial, foi proposta a análise do cenário de queda e evolução das criptmoedas no periodo pandemico e pós pandemia para entender se o cenário é favorável para investimentos." style="rounded=0;whiteSpace=wrap;html=1;" parent="1" vertex="1">
          <mxGeometry x="-20" y="190" width="510" height="100" as="geometry" />
        </mxCell>
        <mxCell id="cvL-I4Pj1tdSeowoCA_2-47" value="&lt;div&gt;&lt;b&gt;Origem dos dados: https://rapidapi.com/Coinranking/api/coinranking1&lt;/b&gt;&lt;/div&gt;&lt;div&gt;&lt;b&gt;Periodo de extração dos dados : 5 anos&lt;/b&gt;&lt;/div&gt;&lt;div&gt;&lt;b&gt;E após o processamento histórico iremos atualizar near real time em 5/5 minutos&lt;/b&gt;&lt;/div&gt;" style="rounded=0;whiteSpace=wrap;html=1;" parent="1" vertex="1">
          <mxGeometry x="500" y="190" width="536" height="100" as="geometry" />
        </mxCell>
        <mxCell id="pN4DsTpRMgEc8Al7IqFk-2" value="" style="image;sketch=0;aspect=fixed;html=1;points=[];align=center;fontSize=12;image=img/lib/mscae/BlobBlock.svg;" vertex="1" parent="1">
          <mxGeometry x="175" y="585" width="53.57" height="45" as="geometry" />
        </mxCell>
        <mxCell id="pN4DsTpRMgEc8Al7IqFk-3" value="" style="image;sketch=0;aspect=fixed;html=1;points=[];align=center;fontSize=12;image=img/lib/mscae/BlobBlock.svg;" vertex="1" parent="1">
          <mxGeometry x="363" y="585" width="54" height="45.36" as="geometry" />
        </mxCell>
        <mxCell id="pN4DsTpRMgEc8Al7IqFk-4" value="JSON" style="text;html=1;align=center;verticalAlign=middle;resizable=0;points=[];autosize=1;strokeColor=none;fillColor=none;" vertex="1" parent="1">
          <mxGeometry x="170" y="635.36" width="60" height="30" as="geometry" />
        </mxCell>
        <mxCell id="pN4DsTpRMgEc8Al7IqFk-5" value="PARQUET" style="text;html=1;align=center;verticalAlign=middle;resizable=0;points=[];autosize=1;strokeColor=none;fillColor=none;" vertex="1" parent="1">
          <mxGeometry x="350" y="635.36" width="80" height="30" as="geometry" />
        </mxCell>
      </root>
    </mxGraphModel>
  </diagram>
</mxfile>
